<svg width="44" height="35" viewBox="0 0 44 35" fill="none" xmlns="http://www.w3.org/2000/svg">
<path d="M43.493 2.362H12.891V5.762H43.493V2.362Z" fill="white"/>
<path d="M43.493 15.962H12.891V19.362H43.493V15.962Z" fill="white"/>
<path d="M43.493 29.562H12.891V32.962H43.493V29.562Z" fill="white"/>
<path d="M3.594 7.462C5.471 7.462 6.992 5.93999 6.992 4.06199C6.992 2.18499 5.471 0.662994 3.594 0.662994H3.574C1.697 0.662994 0.183001 2.18499 0.183001 4.06199C0.184001 5.93899 1.715 7.462 3.594 7.462Z" fill="white"/>
<path d="M3.594 21.062C5.471 21.062 6.992 19.541 6.992 17.663C6.992 15.785 5.471 14.264 3.594 14.264H3.574C1.697 14.264 0.183001 15.785 0.183001 17.663C0.183001 19.541 1.715 21.062 3.594 21.062Z" fill="white"/>
<path d="M3.594 34.662C5.471 34.662 6.992 33.14 6.992 31.263C6.992 29.384 5.471 27.863 3.594 27.863H3.574C1.697 27.863 0.183001 29.384 0.183001 31.263C0.184001 33.14 1.715 34.662 3.594 34.662Z" fill="white"/>
</svg>
